# xmcd
#
# Track frame offsets:
#	150
#	16464
#	34268
#	49134
#	67575
#	82403
#	100487
#	116910
#	130887
#	145194
#	161696
#	176380
#	191975
#	206832
#	223170
#	242131
#	258167
#	270801
#
# Disc length: 3869 seconds
#
# Revision: 1
# Processed by: cddbd v1.5.2PL0 Copyright (c) Steve Scherf et al.
# Submitted via: audiograbber 1.83.01
#
DISCID=0f0f1b12
DTITLE=Various Artist - CDX Volume 546 (May 21, 2012)
DYEAR=2012
DGENRE=Country
TTITLE0=Lee Brice - Hard To Love 
TTITLE1=Jessie James - Military Man
TTITLE2=Blake Shelton - Over
TTITLE3=Big and Rich - That's Why I Pray 
TTITLE4=Jake Owen - The One That Got Away
TTITLE5=Wayne Warner and Friends - Dare The World (featuring Bryan White, Kevin S
TTITLE5=harp, Lind Davis, Jimmy Fort
TTITLE6=Heartland - I Loved Her First 
TTITLE7=Gwen Sebastian - Met Him In A Motel Room
TTITLE8=Scarletta - Right Here, Right Now
TTITLE9=Taylor Made - Things You Don't Grow Out Of
TTITLE10=Bill Wence - Borderline Crazy 
TTITLE11=Alexandra Demetree - Just Alone
TTITLE12=Tommy Steele - My Side Of The Street
TTITLE13=Aaron Watson - Raise Your Bottle
TTITLE14=Greg Susoreny - Stay With Me
TTITLE15=Dee Hilligoss - Too Soon
TTITLE16=Israel David - You've Just Been Robbed By Jesse James
TTITLE17=Seth White - Faith On!
EXTD=
EXTT0=
EXTT1=
EXTT2=
EXTT3=
EXTT4=
EXTT5=
EXTT6=
EXTT7=
EXTT8=
EXTT9=
EXTT10=
EXTT11=
EXTT12=
EXTT13=
EXTT14=
EXTT15=
EXTT16=
EXTT17=
PLAYORDER=
